<?xml version="1.0" standalone="no"?>
<!DOCTYPE svg PUBLIC "-//W3C//DTD SVG 20010904//EN"
 "http://www.w3.org/TR/2001/REC-SVG-20010904/DTD/svg10.dtd">
<svg version="1.0" xmlns="http://www.w3.org/2000/svg"
 width="256.000000pt" height="256.000000pt" viewBox="0 0 256.000000 256.000000"
 preserveAspectRatio="xMidYMid meet">

<g transform="translate(0.000000,256.000000) scale(0.100000,-0.100000)"
fill="#000000" stroke="none">
<path d="M2082 2387 c-43 -13 -116 -78 -132 -117 l-12 -30 -105 0 c-97 0 -106
-2 -128 -25 l-25 -24 0 -416 0 -415 -80 0 -80 0 0 -80 0 -80 80 0 80 0 0 -415
0 -416 25 -24 c22 -23 31 -25 128 -25 l105 0 12 -30 c28 -68 129 -130 212
-130 124 0 238 115 238 240 0 125 -114 240 -238 240 -83 0 -184 -62 -212 -130
-11 -28 -16 -30 -61 -30 l-49 0 0 360 0 360 49 0 c45 0 50 -2 61 -30 28 -68
129 -130 212 -130 124 0 238 115 238 240 0 125 -114 240 -238 240 -83 0 -184
-62 -212 -130 -11 -28 -16 -30 -61 -30 l-49 0 0 360 0 360 49 0 c45 0 50 -2
61 -30 7 -17 32 -48 56 -69 100 -88 238 -80 327 19 90 100 90 220 0 320 -64
72 -159 97 -251 67z"/>
<path d="M501 1799 c-151 -65 -278 -122 -282 -126 -8 -8 555 -263 581 -263 17
0 590 253 590 260 -1 10 -575 250 -595 249 -11 0 -143 -54 -294 -120z"/>
<path d="M160 1267 c0 -304 2 -337 17 -355 15 -17 238 -121 541 -253 l42 -18
0 347 0 347 -293 129 c-160 71 -295 131 -299 133 -5 2 -8 -146 -8 -330z"/>
<path d="M1138 1466 l-298 -131 0 -347 0 -348 58 26 c403 178 517 232 529 250
11 17 13 84 11 351 l-3 331 -297 -132z"/>
</g>
</svg>
