<?xml version="1.0" standalone="no"?>
<!DOCTYPE svg PUBLIC "-//W3C//DTD SVG 20010904//EN"
 "http://www.w3.org/TR/2001/REC-SVG-20010904/DTD/svg10.dtd">
<svg version="1.0" xmlns="http://www.w3.org/2000/svg"
 width="256.000000pt" height="256.000000pt" viewBox="0 0 256.000000 256.000000"
 preserveAspectRatio="xMidYMid meet">

<g transform="translate(0.000000,256.000000) scale(0.100000,-0.100000)"
fill="#000000" stroke="none">
<path d="M260 2430 l0 -130 -130 0 -130 0 0 -400 0 -400 395 0 395 0 0 530 0
530 -265 0 -265 0 0 -130z m405 -270 l29 -31 -169 -169 -170 -170 -60 60 -59
59 29 31 29 30 28 -27 29 -27 137 137 c75 75 139 137 143 137 3 0 18 -14 34
-30z m-355 -45 l0 -45 -65 0 -65 0 0 -195 0 -195 175 0 175 0 0 85 0 85 45 0
45 0 0 -130 0 -130 -265 0 -265 0 0 285 0 285 110 0 110 0 0 -45z"/>
<path d="M87 2472 c-42 -42 -77 -81 -77 -85 0 -4 37 -7 83 -5 l82 3 3 83 c2
45 -1 82 -5 82 -5 0 -43 -35 -86 -78z"/>
<path d="M2105 2358 c-8 -23 -26 -111 -23 -113 2 -1 93 -21 204 -44 213 -44
241 -44 263 -2 15 28 14 46 -7 71 -15 18 -52 29 -212 61 -217 44 -219 44 -225
27z"/>
<path d="M2056 2141 c-7 -21 -316 -1401 -319 -1421 -1 -10 11 -16 41 -21 24
-3 45 -3 47 1 8 13 328 1430 324 1434 -2 3 -23 9 -46 14 -36 8 -43 7 -47 -7z"/>
<path d="M880 1551 l0 -141 -197 -2 -196 -3 -62 -285 c-55 -253 -60 -286 -46
-292 9 -4 255 -55 547 -113 l531 -105 59 35 c32 20 72 39 87 42 16 3 33 15 38
27 10 25 181 787 177 791 -5 5 -260 55 -277 55 -12 0 -25 -31 -50 -122 -19
-68 -38 -133 -42 -144 -7 -21 -8 -21 -265 30 -142 28 -259 56 -261 61 -2 6 14
71 36 145 26 94 35 137 27 142 -6 3 -32 9 -58 13 l-48 7 0 -141z"/>
<path d="M1055 1550 c-15 -56 -26 -102 -24 -104 8 -6 122 -26 127 -22 5 5 62
200 59 202 -4 3 -108 24 -121 24 -7 0 -24 -40 -41 -100z"/>
<path d="M1307 1603 c-9 -15 -58 -195 -54 -199 10 -11 119 -26 126 -18 12 12
61 186 55 195 -2 4 -25 10 -50 14 -26 3 -52 9 -59 11 -7 3 -15 2 -18 -3z"/>
<path d="M2106 1522 c-9 -43 -19 -87 -22 -99 -5 -17 0 -21 33 -27 21 -4 46 -9
55 -12 13 -4 18 3 24 32 5 30 0 49 -27 106 -19 38 -37 71 -40 74 -3 2 -14 -31
-23 -74z"/>
<path d="M2051 1281 c-37 -144 -62 -274 -55 -281 13 -12 104 -24 104 -14 0 5
16 76 35 159 18 82 33 150 32 151 -1 0 -26 6 -55 11 l-52 10 -9 -36z"/>
<path d="M1936 783 c-21 -94 -25 -128 -16 -131 6 -2 27 -18 46 -34 19 -17 37
-29 39 -26 3 3 20 71 39 151 l33 146 -49 10 c-27 6 -52 11 -56 11 -4 0 -20
-57 -36 -127z"/>
<path d="M267 737 c-21 -15 -51 -120 -42 -147 4 -12 22 -24 43 -30 20 -6 258
-51 527 -100 270 -50 500 -92 511 -95 18 -4 23 1 28 28 3 17 17 56 31 85 17
38 21 54 12 57 -18 6 -1070 215 -1083 215 -5 0 -18 -6 -27 -13z"/>
<path d="M1649 607 c-126 -36 -205 -122 -229 -249 -36 -189 134 -375 325 -355
239 25 364 294 225 485 -73 101 -207 151 -321 119z m188 -113 c34 -21 55 -44
76 -84 25 -48 28 -63 24 -117 -6 -83 -43 -138 -116 -176 -65 -32 -127 -35
-186 -8 -144 66 -178 246 -66 355 75 73 179 85 268 30z"/>
<path d="M1656 421 c-116 -77 -67 -241 73 -241 33 0 47 7 81 38 36 35 40 44
40 86 0 105 -111 172 -194 117z"/>
</g>
</svg>
