<?xml version="1.0" standalone="no"?>
<!DOCTYPE svg PUBLIC "-//W3C//DTD SVG 20010904//EN"
 "http://www.w3.org/TR/2001/REC-SVG-20010904/DTD/svg10.dtd">
<svg version="1.0" xmlns="http://www.w3.org/2000/svg"
 width="256.000000pt" height="256.000000pt" viewBox="0 0 256.000000 256.000000"
 preserveAspectRatio="xMidYMid meet">

<g transform="translate(0.000000,256.000000) scale(0.100000,-0.100000)"
fill="#000000" stroke="none">
<path d="M122 2144 c-57 -28 -107 -93 -118 -151 -18 -94 29 -190 115 -235 153
-80 321 21 321 192 0 169 -165 270 -318 194z"/>
<path d="M755 2105 c-80 -28 -129 -118 -107 -194 16 -53 48 -90 96 -112 39
-18 84 -19 851 -19 517 0 823 4 847 10 46 13 105 77 114 124 16 86 -38 172
-121 195 -28 7 -286 11 -840 11 -663 -1 -807 -3 -840 -15z"/>
<path d="M123 1475 c-74 -37 -123 -115 -123 -195 0 -80 49 -158 123 -195 152
-75 317 26 317 195 0 169 -165 270 -317 195z"/>
<path d="M755 1435 c-50 -18 -90 -61 -106 -115 -24 -80 33 -176 119 -199 29
-8 282 -11 860 -9 l820 3 39 31 c97 77 97 191 0 268 l-39 31 -826 2 c-695 2
-833 0 -867 -12z"/>
<path d="M119 802 c-158 -83 -156 -307 3 -386 153 -76 318 25 318 194 0 171
-168 272 -321 192z"/>
<path d="M744 761 c-48 -22 -80 -59 -96 -112 -23 -78 34 -175 117 -198 56 -15
1614 -15 1670 0 83 23 137 109 121 195 -9 47 -68 111 -114 124 -24 6 -330 10
-847 10 -767 0 -812 -1 -851 -19z"/>
</g>
</svg>
