<?xml version="1.0" standalone="no"?>
<!DOCTYPE svg PUBLIC "-//W3C//DTD SVG 20010904//EN"
 "http://www.w3.org/TR/2001/REC-SVG-20010904/DTD/svg10.dtd">
<svg version="1.0" xmlns="http://www.w3.org/2000/svg"
 width="256.000000pt" height="256.000000pt" viewBox="0 0 256.000000 256.000000"
 preserveAspectRatio="xMidYMid meet">

<g transform="translate(0.000000,256.000000) scale(0.100000,-0.100000)"
fill="#000000" stroke="none">
<path d="M1252 2548 c-15 -15 -16 -171 -2 -199 6 -10 19 -19 30 -19 30 0 40
31 40 122 0 85 -8 108 -40 108 -9 0 -21 -5 -28 -12z"/>
<path d="M837 2223 c-17 -16 -3 -49 46 -108 56 -69 80 -83 102 -65 25 21 17
42 -42 113 -54 63 -86 81 -106 60z"/>
<path d="M1618 2163 c-60 -71 -68 -92 -43 -113 22 -19 46 -4 103 66 59 71 66
107 22 112 -20 2 -36 -10 -82 -65z"/>
<path d="M1230 2187 c-19 -9 -50 -63 -122 -209 l-97 -197 -48 -6 c-71 -10 -81
-14 -88 -36 -12 -37 12 -51 74 -43 110 13 112 15 217 231 76 157 97 193 114
193 16 0 38 -36 114 -192 62 -128 102 -198 117 -207 13 -8 118 -28 234 -45
182 -27 210 -33 213 -50 3 -13 -44 -65 -160 -178 l-163 -160 -160 -39 c-88
-21 -174 -38 -191 -39 -17 0 -105 18 -195 39 l-164 39 -163 160 c-116 112
-163 165 -160 178 2 14 19 21 78 31 81 14 107 32 89 64 -11 22 -32 23 -115 8
-88 -15 -94 -18 -115 -52 -32 -54 -25 -82 37 -147 30 -32 52 -60 47 -63 -4 -3
-62 -17 -127 -31 -65 -15 -126 -31 -135 -36 -26 -14 -351 -345 -351 -357 0
-26 35 -40 178 -72 l151 -34 3 -343 3 -344 25 -25 c20 -19 54 -32 150 -54 113
-26 127 -27 150 -14 21 12 34 13 68 4 24 -7 42 -18 42 -26 0 -23 21 -29 270
-85 l235 -52 440 101 c382 88 443 104 465 126 l25 25 3 344 3 343 150 33 c143
32 179 46 179 73 0 20 -343 356 -375 367 -16 5 -73 19 -125 30 -52 11 -101 23
-109 25 -9 4 4 24 43 64 61 64 68 89 41 141 -8 16 -23 34 -34 39 -13 8 -405
71 -437 71 -3 0 -48 88 -100 195 -77 158 -100 198 -124 210 -35 18 -67 19
-100 2z m1188 -1125 c-389 -86 -473 -108 -482 -128 -14 -30 -95 -49 -112 -26
-11 15 -20 14 -107 -5 l-95 -20 -128 128 c-70 71 -126 130 -124 132 3 2 183
44 400 94 l395 90 133 -131 c73 -72 127 -132 120 -134z m-1556 157 c181 -41
328 -76 328 -79 0 -3 -57 -62 -127 -131 l-128 -127 -335 76 c-184 41 -337 77
-339 78 -9 8 245 264 259 261 8 -2 162 -37 342 -78z"/>
<path d="M382 2048 c-22 -22 -13 -36 60 -98 79 -66 111 -74 116 -29 3 22 -8
36 -63 83 -67 56 -91 66 -113 44z"/>
<path d="M2065 2004 c-55 -47 -66 -61 -63 -83 5 -45 37 -37 116 29 73 62 82
76 60 98 -22 22 -46 12 -113 -44z"/>
</g>
</svg>
