<?xml version="1.0" standalone="no"?>
<!DOCTYPE svg PUBLIC "-//W3C//DTD SVG 20010904//EN"
 "http://www.w3.org/TR/2001/REC-SVG-20010904/DTD/svg10.dtd">
<svg version="1.0" xmlns="http://www.w3.org/2000/svg"
 width="256.000000pt" height="256.000000pt" viewBox="0 0 256.000000 256.000000"
 preserveAspectRatio="xMidYMid meet">
<metadata>
Created by potrace 1.16, written by Peter Selinger 2001-2019
</metadata>
<g transform="translate(0.000000,256.000000) scale(0.100000,-0.100000)"
fill="#000000" stroke="none">
<path d="M401 2539 c-75 -22 -147 -85 -180 -159 -23 -51 -28 -156 -9 -211 85
-250 446 -256 539 -9 42 110 6 249 -81 321 -71 59 -182 83 -269 58z"/>
<path d="M1975 2530 c-109 -43 -174 -133 -182 -249 -14 -193 153 -337 345
-297 98 20 178 90 210 185 21 59 15 160 -12 216 -63 133 -226 199 -361 145z"/>
<path d="M192 1980 c-69 -35 -119 -86 -159 -162 -28 -52 -28 -56 -31 -259 l-3
-206 83 -22 c107 -28 108 -29 108 -39 0 -5 -7 -29 -15 -52 -33 -94 -13 -239
47 -341 36 -60 140 -166 213 -214 77 -51 211 -116 297 -144 66 -22 68 -24 60
-49 -4 -15 -7 -110 -7 -211 l0 -185 60 -18 c184 -55 445 -81 607 -59 101 13
222 44 274 69 l37 17 -6 185 c-3 102 -8 194 -12 205 -5 18 4 23 82 48 171 54
318 141 425 251 73 75 113 141 134 220 18 67 18 171 -1 231 -8 27 -13 50 -12
51 1 0 25 7 52 13 28 7 69 21 93 31 l43 20 -3 202 -3 203 -34 63 c-41 75 -94
125 -169 160 -53 24 -57 24 -81 9 -79 -51 -115 -62 -196 -62 -67 1 -88 5 -132
28 -28 14 -54 31 -58 37 -10 16 -36 12 -90 -14 -65 -30 -138 -103 -167 -167
-20 -44 -26 -50 -48 -45 -97 20 -309 28 -438 17 -75 -6 -148 -14 -162 -17 -22
-5 -28 1 -48 45 -29 64 -102 137 -167 167 -54 26 -80 30 -90 14 -4 -6 -30 -22
-58 -37 -98 -49 -223 -40 -307 22 -19 14 -39 25 -45 25 -7 0 -39 -14 -73 -30z
m1304 -282 l94 -11 0 -167 0 -167 83 -21 c188 -50 229 -55 422 -58 l189 -2 14
-39 c7 -21 14 -70 14 -109 1 -59 -4 -82 -29 -135 -34 -73 -112 -163 -191 -222
-66 -48 -218 -121 -317 -152 l-73 -22 -40 47 c-42 49 -108 94 -155 105 -20 5
-39 -1 -76 -23 -104 -64 -225 -65 -325 -2 -26 17 -52 30 -59 30 -31 0 -118
-52 -163 -98 l-50 -51 -65 20 c-35 10 -114 44 -175 74 -214 106 -346 266 -347
422 -1 83 29 177 53 167 33 -13 298 -17 379 -5 97 14 223 46 263 67 l28 15 0
163 0 164 78 9 c111 14 337 15 448 1z"/>
<path d="M1139 1257 c-75 -39 -122 -95 -145 -174 -38 -132 22 -274 141 -335
50 -26 167 -36 221 -18 253 83 264 447 16 540 -82 31 -157 27 -233 -13z"/>
</g>
</svg>
